<?xml version="1.0" standalone="no"?>
<!DOCTYPE svg PUBLIC "-//W3C//DTD SVG 20010904//EN"
 "http://www.w3.org/TR/2001/REC-SVG-20010904/DTD/svg10.dtd">
<svg version="1.0" xmlns="http://www.w3.org/2000/svg"
 width="900.000000pt" height="900.000000pt" viewBox="0 0 900.000000 900.000000"
 preserveAspectRatio="xMidYMid meet">
<metadata>
Created by potrace 1.10, written by Peter Selinger 2001-2011
</metadata>
<g transform="translate(0.000000,900.000000) scale(0.100000,-0.100000)"
fill="#000000" stroke="none">
<path d="M4445 8904 c-22 -14 -49 -29 -60 -35 -11 -5 -33 -18 -50 -29 -16 -11
-37 -23 -45 -27 -8 -4 -46 -25 -85 -48 -38 -22 -77 -44 -85 -48 -8 -4 -28 -16
-45 -27 -16 -11 -37 -23 -45 -27 -8 -4 -46 -26 -85 -48 -38 -23 -77 -44 -85
-48 -8 -4 -28 -16 -45 -27 -16 -11 -37 -23 -45 -27 -8 -4 -46 -25 -85 -48 -38
-22 -77 -44 -85 -48 -8 -4 -28 -16 -45 -27 -16 -11 -37 -23 -45 -27 -8 -4 -46
-26 -85 -48 -38 -23 -77 -44 -85 -48 -8 -4 -28 -16 -45 -27 -16 -11 -37 -23
-45 -27 -8 -4 -58 -32 -110 -63 -52 -31 -102 -59 -110 -63 -8 -4 -28 -16 -45
-26 -16 -11 -52 -32 -80 -47 -89 -49 -100 -55 -130 -74 -16 -11 -37 -23 -45
-27 -8 -4 -46 -26 -85 -48 -38 -23 -77 -44 -85 -48 -8 -4 -28 -16 -45 -27 -16
-11 -37 -23 -45 -27 -8 -4 -58 -32 -110 -63 -52 -31 -102 -59 -110 -63 -8 -4
-28 -16 -45 -27 -16 -11 -37 -23 -45 -27 -8 -4 -46 -25 -85 -48 -38 -22 -77
-44 -85 -48 -8 -4 -28 -16 -45 -27 -16 -11 -37 -23 -45 -27 -18 -8 -158 -89
-180 -103 -8 -6 -22 -13 -30 -17 -8 -4 -58 -32 -110 -63 -52 -31 -102 -59
-110 -63 -8 -4 -28 -16 -45 -27 -16 -11 -37 -23 -45 -27 -8 -4 -46 -26 -85
-48 -38 -23 -77 -44 -85 -48 -8 -4 -28 -16 -45 -27 -16 -11 -37 -23 -45 -27
-8 -4 -46 -26 -85 -48 -38 -23 -77 -44 -85 -48 -8 -4 -28 -16 -45 -27 -16 -11
-37 -23 -45 -27 -8 -4 -52 -29 -97 -55 l-83 -49 0 -2204 0 -2205 40 -25 c22
-14 57 -35 78 -46 20 -11 51 -29 67 -40 17 -10 37 -22 45 -26 8 -4 47 -25 85
-48 39 -22 77 -44 85 -48 8 -4 29 -16 45 -27 17 -11 37 -23 45 -27 18 -8 158
-89 180 -103 8 -6 22 -13 30 -17 8 -4 58 -32 110 -63 52 -31 102 -59 110 -63
8 -4 29 -16 45 -27 17 -11 37 -23 45 -27 8 -4 47 -25 85 -48 39 -22 77 -44 85
-48 8 -4 29 -16 45 -27 17 -11 37 -23 45 -27 8 -4 47 -26 85 -48 39 -23 77
-44 85 -48 8 -4 29 -16 45 -27 17 -11 37 -23 45 -27 8 -4 47 -25 85 -48 39
-22 77 -44 85 -48 8 -4 29 -16 45 -27 17 -11 37 -23 45 -27 8 -4 47 -26 85
-48 39 -23 77 -44 85 -48 8 -4 29 -16 45 -27 17 -11 37 -23 45 -27 8 -4 58
-32 110 -63 52 -31 102 -59 110 -63 8 -4 29 -16 45 -27 17 -11 39 -24 51 -29
19 -8 137 -77 174 -101 8 -6 22 -13 30 -17 8 -4 47 -26 85 -48 39 -23 77 -44
85 -48 8 -4 29 -16 45 -27 17 -11 37 -23 45 -27 8 -4 58 -32 110 -63 52 -31
102 -59 110 -63 8 -4 29 -16 45 -27 17 -11 37 -23 45 -27 8 -4 47 -25 85 -48
39 -22 77 -44 85 -48 8 -4 29 -16 45 -27 17 -11 37 -23 45 -27 8 -4 47 -26 85
-48 39 -23 77 -44 85 -48 8 -4 29 -16 45 -26 17 -11 51 -31 77 -45 26 -14 62
-35 80 -46 18 -11 39 -20 45 -20 7 0 41 17 75 38 35 21 70 41 78 45 8 4 29 16
45 27 17 11 37 23 45 27 8 4 47 26 85 48 39 23 77 44 85 48 8 4 22 11 30 17
22 14 212 125 230 133 8 4 29 16 45 27 17 11 37 23 45 27 8 4 47 25 85 48 39
22 77 44 85 48 8 4 29 16 45 27 17 11 37 23 45 27 8 4 47 26 85 48 39 23 77
44 85 48 8 4 29 16 45 27 17 11 37 23 45 27 8 4 47 25 85 48 39 22 77 44 85
48 8 4 29 16 45 27 17 11 37 23 45 27 8 4 47 26 85 48 39 23 77 44 85 48 8 4
29 16 45 27 17 11 37 23 45 27 8 4 58 32 110 63 52 31 102 59 110 63 8 4 29
16 45 27 17 11 37 23 45 27 8 4 47 25 85 48 39 22 77 44 85 48 8 4 24 13 35
20 11 7 63 37 115 67 52 30 104 60 115 67 11 7 27 16 35 20 8 4 58 32 110 63
52 31 102 59 110 63 8 4 29 16 45 27 17 11 37 23 45 27 8 4 47 25 85 48 39 22
77 44 85 48 8 4 29 16 45 27 17 11 37 23 45 27 8 4 47 26 85 48 39 23 77 44
85 48 8 4 29 16 45 27 17 11 37 23 45 27 8 4 47 25 85 48 39 22 77 44 85 48 8
4 29 16 45 26 17 11 47 29 67 40 21 11 56 32 78 46 l40 25 0 2205 0 2204 -82
48 c-46 27 -90 52 -98 56 -8 4 -28 16 -45 27 -16 11 -37 23 -45 27 -8 4 -46
26 -85 48 -38 23 -77 44 -85 48 -8 4 -28 16 -45 27 -16 11 -37 23 -45 27 -8 4
-58 32 -110 63 -52 31 -102 59 -110 63 -8 4 -24 13 -35 20 -11 7 -63 37 -115
67 -52 30 -104 60 -115 67 -11 7 -27 16 -35 20 -19 9 -210 120 -230 133 -8 6
-22 13 -30 17 -8 4 -58 32 -110 63 -52 31 -102 59 -110 63 -8 4 -28 16 -45 27
-16 11 -37 23 -45 27 -8 4 -46 25 -85 48 -38 22 -77 44 -85 48 -8 4 -28 16
-45 27 -16 11 -37 23 -45 27 -8 4 -46 26 -85 48 -38 23 -77 44 -85 48 -8 4
-28 16 -45 27 -16 11 -37 23 -45 27 -8 4 -46 25 -85 48 -38 22 -77 44 -85 48
-8 4 -28 16 -45 27 -16 11 -37 23 -45 27 -8 4 -46 25 -85 48 -38 22 -77 44
-85 48 -8 4 -28 16 -45 27 -16 11 -37 23 -45 27 -18 8 -208 119 -230 133 -8 6
-22 13 -30 17 -8 4 -46 25 -85 48 -38 22 -77 44 -85 48 -8 4 -28 16 -45 27
-16 11 -37 23 -45 27 -8 4 -46 26 -85 48 -38 23 -77 44 -85 48 -8 4 -28 16
-45 27 -16 11 -37 23 -45 27 -8 4 -58 32 -110 63 -52 31 -102 59 -110 63 -8 4
-28 16 -45 26 -45 29 -105 61 -113 61 -4 0 -25 -12 -47 -26z m80 -585 c4 -5
17 -14 28 -20 12 -5 29 -13 37 -19 22 -14 163 -95 180 -103 8 -4 29 -16 45
-27 17 -11 37 -23 45 -27 8 -4 47 -26 85 -48 39 -23 77 -44 85 -48 8 -4 29
-16 45 -27 17 -11 37 -23 45 -27 8 -4 47 -25 85 -48 39 -22 77 -44 85 -48 8
-4 29 -16 45 -27 17 -11 37 -23 45 -27 8 -4 47 -26 85 -48 39 -23 77 -44 85
-48 8 -4 29 -16 45 -27 17 -11 37 -23 45 -27 8 -4 58 -32 110 -63 52 -31 102
-59 110 -63 8 -4 22 -11 30 -17 21 -14 162 -95 180 -103 8 -4 29 -16 45 -27
17 -11 37 -23 45 -27 8 -4 58 -32 110 -63 52 -31 102 -59 110 -63 8 -4 22 -11
30 -17 22 -14 212 -125 230 -133 8 -4 29 -16 45 -27 17 -11 37 -23 45 -27 8
-4 47 -25 85 -48 39 -22 77 -44 85 -48 8 -4 29 -16 45 -27 17 -11 37 -23 45
-27 8 -4 47 -25 85 -48 39 -22 77 -44 85 -48 8 -4 22 -11 30 -17 22 -14 212
-125 230 -133 8 -4 29 -16 45 -27 17 -11 37 -23 45 -27 8 -4 47 -25 85 -48 39
-22 77 -44 85 -48 19 -10 47 -27 83 -51 l27 -18 0 -1909 0 -1909 -22 -11 c-13
-5 -32 -15 -43 -22 -11 -7 -51 -30 -90 -52 -38 -22 -79 -45 -90 -52 -11 -7
-27 -16 -35 -20 -8 -4 -58 -32 -110 -63 -52 -31 -102 -59 -110 -63 -8 -4 -28
-16 -45 -27 -16 -11 -37 -23 -45 -27 -8 -4 -46 -25 -85 -48 -38 -22 -77 -44
-85 -48 -8 -4 -28 -16 -45 -27 -16 -11 -37 -23 -45 -27 -8 -4 -46 -26 -85 -48
-38 -23 -77 -44 -85 -48 -8 -4 -28 -16 -45 -27 -16 -11 -37 -23 -45 -27 -8 -4
-46 -25 -85 -48 -38 -22 -77 -44 -85 -48 -8 -4 -28 -16 -45 -27 -16 -11 -37
-23 -45 -27 -8 -4 -46 -26 -85 -48 -38 -23 -77 -44 -85 -48 -8 -4 -28 -16 -45
-27 -16 -11 -37 -23 -45 -27 -8 -4 -58 -32 -110 -63 -52 -31 -102 -59 -110
-63 -8 -4 -28 -16 -45 -27 -30 -19 -41 -25 -130 -74 -27 -15 -63 -36 -80 -47
-16 -10 -37 -22 -45 -26 -8 -4 -46 -26 -85 -48 -38 -23 -77 -44 -85 -48 -8 -4
-28 -16 -45 -27 -16 -11 -37 -23 -45 -27 -8 -4 -58 -32 -110 -63 -52 -31 -102
-59 -110 -63 -8 -4 -28 -16 -45 -27 -16 -11 -37 -23 -45 -27 -8 -4 -46 -25
-85 -48 -38 -22 -77 -44 -85 -48 -8 -4 -28 -16 -45 -27 -16 -11 -37 -23 -45
-27 -8 -4 -46 -26 -85 -48 -38 -23 -77 -44 -85 -48 -8 -4 -24 -13 -35 -19 -60
-39 -96 -58 -110 -58 -8 0 -32 10 -53 23 -20 13 -44 27 -52 31 -8 4 -24 12
-35 19 -11 7 -63 37 -115 67 -52 30 -104 60 -115 67 -11 7 -27 16 -35 20 -8 4
-58 32 -110 63 -52 31 -102 59 -110 63 -8 4 -28 16 -45 27 -16 11 -37 23 -45
27 -8 4 -46 25 -85 48 -38 22 -77 44 -85 48 -8 4 -28 16 -45 27 -16 11 -37 23
-45 27 -8 4 -46 26 -85 48 -38 23 -77 44 -85 48 -8 4 -22 11 -30 17 -22 14
-212 125 -230 133 -8 4 -28 16 -45 27 -16 11 -37 23 -45 27 -8 4 -46 25 -85
48 -38 22 -77 44 -85 48 -8 4 -28 16 -45 27 -16 11 -37 23 -45 27 -8 4 -58 32
-110 63 -52 31 -102 59 -110 63 -8 4 -22 11 -30 17 -22 14 -162 95 -180 103
-8 4 -28 16 -45 27 -16 11 -37 23 -45 27 -8 4 -46 26 -85 48 -38 23 -77 44
-85 48 -8 4 -28 16 -45 27 -16 11 -37 23 -45 27 -8 4 -58 32 -110 63 -52 31
-102 59 -110 63 -8 4 -28 16 -45 27 -16 11 -37 23 -45 27 -8 4 -46 25 -85 48
-38 22 -77 44 -85 48 -8 4 -31 17 -50 28 -19 12 -78 46 -130 77 -52 30 -98 60
-102 66 -4 6 -8 862 -8 1901 0 1040 4 1895 8 1901 4 6 14 13 22 17 8 4 22 11
30 17 22 14 212 125 230 133 8 4 29 16 45 27 17 11 37 23 45 27 8 4 47 25 85
48 39 22 77 44 85 48 8 4 29 16 45 27 17 11 37 23 45 27 8 4 47 25 85 48 39
22 77 44 85 48 8 4 22 11 30 17 22 14 212 125 230 133 8 4 29 16 45 27 17 11
37 23 45 27 8 4 47 26 85 48 39 23 77 44 85 48 8 4 29 16 45 27 17 11 37 23
45 27 8 4 47 26 85 48 39 23 77 44 85 48 8 4 29 16 45 27 17 11 37 23 45 27 8
4 47 25 85 48 39 22 77 44 85 48 8 4 29 16 45 27 17 11 37 23 45 27 8 4 47 26
85 48 39 23 77 44 85 48 8 4 29 16 45 27 17 11 37 23 45 27 8 4 58 32 110 63
52 31 102 59 110 63 8 4 24 13 35 20 11 7 63 37 115 67 52 30 104 60 115 67
11 7 27 16 35 20 8 4 58 32 110 63 52 31 102 59 110 63 8 4 24 13 35 20 11 7
63 37 115 67 52 30 104 60 115 67 11 7 30 17 42 22 11 5 24 15 28 20 3 6 17
11 30 11 13 0 27 -5 30 -11z"/>
<path d="M5538 6203 c-17 -4 -18 -26 -18 -283 0 -244 2 -279 16 -284 9 -3 167
-6 352 -6 303 0 343 -2 398 -19 275 -87 445 -354 400 -631 -17 -107 -29 -138
-85 -224 -85 -129 -191 -205 -346 -247 -62 -16 -108 -19 -403 -19 l-332 0 2
-282 3 -283 213 -5 212 -5 33 -55 c18 -30 36 -62 40 -70 4 -8 16 -28 27 -45
11 -16 23 -37 27 -45 4 -8 32 -58 63 -110 31 -52 59 -102 63 -110 4 -8 16 -28
27 -45 11 -16 23 -37 27 -45 4 -8 26 -46 48 -85 23 -38 44 -77 48 -85 4 -8 16
-28 27 -45 11 -16 23 -37 27 -45 8 -18 118 -208 133 -230 6 -8 15 -24 20 -35
6 -11 18 -33 28 -50 l19 -30 326 -3 c232 -2 327 1 327 9 0 6 -15 36 -33 67
-18 31 -36 64 -40 72 -4 8 -13 24 -20 35 -7 11 -37 63 -67 115 -30 52 -60 104
-67 115 -7 11 -15 27 -19 35 -4 8 -26 47 -49 85 -22 39 -44 77 -48 85 -4 8
-16 29 -27 45 -11 17 -23 37 -27 45 -8 18 -89 159 -103 180 -6 8 -13 22 -17
30 -4 8 -26 47 -48 85 -23 39 -44 77 -48 85 -4 8 -16 29 -27 45 -27 42 -42 76
-37 89 3 6 39 29 81 50 146 74 266 178 372 321 72 98 74 102 117 190 33 66 49
105 76 185 20 59 41 219 41 315 0 97 -20 247 -44 330 -100 342 -407 657 -741
759 -158 48 -164 49 -555 52 -206 1 -383 0 -392 -3z"/>
<path d="M1730 4460 l0 -1710 283 2 282 3 2 1005 c2 553 5 1011 8 1018 3 9
221 -202 566 -547 308 -309 565 -561 569 -561 5 0 260 252 567 560 306 308
561 556 565 552 4 -4 9 -462 10 -1017 l3 -1010 285 0 285 0 3 1699 c1 1153 -1
1703 -8 1710 -7 7 -277 -256 -853 -832 -463 -463 -849 -842 -857 -842 -8 0
-393 378 -855 840 -462 462 -843 840 -847 840 -5 0 -8 -770 -8 -1710z"/>
</g>
</svg>
