<?xml version="1.0" standalone="no"?>
<!DOCTYPE svg PUBLIC "-//W3C//DTD SVG 20010904//EN"
 "http://www.w3.org/TR/2001/REC-SVG-20010904/DTD/svg10.dtd">
<svg version="1.0" xmlns="http://www.w3.org/2000/svg"
 width="900.000000pt" height="900.000000pt" viewBox="0 0 900.000000 900.000000"
 preserveAspectRatio="xMidYMid meet">
<metadata>
Created by potrace 1.10, written by Peter Selinger 2001-2011
</metadata>
<g transform="translate(0.000000,900.000000) scale(0.100000,-0.100000)"
fill="#ffffff" stroke="none">
<path d="M4125 8960 c-82 -4 -168 -13 -190 -19 -22 -6 -65 -11 -95 -11 -30 0
-73 -7 -95 -15 -22 -8 -59 -14 -82 -15 -23 0 -54 -5 -70 -12 -15 -6 -50 -14
-78 -19 -54 -8 -122 -24 -170 -41 -16 -6 -48 -13 -70 -17 -22 -4 -50 -13 -62
-19 -12 -7 -32 -12 -45 -12 -13 0 -32 -6 -43 -14 -11 -7 -33 -16 -50 -18 -36
-7 -90 -25 -127 -44 -14 -8 -33 -14 -41 -14 -9 0 -29 -7 -46 -15 -17 -8 -45
-22 -62 -30 -17 -8 -39 -15 -49 -15 -9 0 -23 -7 -30 -15 -7 -8 -23 -15 -35
-15 -12 0 -28 -7 -35 -15 -7 -8 -18 -15 -24 -15 -12 0 -232 -110 -331 -166
-33 -18 -69 -38 -80 -44 -11 -6 -33 -19 -50 -30 -16 -11 -36 -23 -44 -26 -65
-32 -371 -254 -521 -379 -109 -91 -454 -436 -545 -545 -125 -150 -347 -456
-379 -521 -3 -8 -15 -27 -26 -44 -11 -16 -24 -39 -30 -50 -6 -11 -26 -47 -44
-80 -56 -99 -166 -319 -166 -331 0 -6 -7 -17 -15 -24 -8 -7 -15 -23 -15 -35 0
-12 -7 -28 -15 -35 -8 -7 -15 -21 -15 -30 0 -10 -7 -32 -15 -49 -8 -17 -22
-45 -30 -62 -8 -17 -15 -37 -15 -46 0 -8 -6 -27 -14 -41 -15 -30 -33 -81 -46
-127 -5 -16 -14 -46 -20 -65 -7 -19 -16 -48 -22 -65 -6 -16 -14 -48 -18 -70
-4 -22 -12 -53 -18 -70 -17 -48 -33 -116 -41 -170 -5 -27 -13 -63 -19 -78 -7
-16 -12 -47 -12 -70 -1 -23 -7 -60 -15 -82 -8 -22 -15 -65 -15 -95 0 -30 -8
-84 -17 -120 -13 -55 -16 -134 -16 -530 0 -396 3 -475 16 -530 9 -36 17 -88
17 -116 0 -28 7 -71 15 -94 8 -23 15 -62 15 -85 0 -23 7 -59 15 -78 8 -20 15
-53 15 -74 1 -21 7 -49 15 -63 8 -14 15 -41 15 -60 0 -19 7 -46 15 -60 8 -14
14 -39 15 -56 0 -16 7 -39 15 -50 8 -10 15 -32 15 -49 0 -16 7 -39 15 -49 8
-11 15 -31 15 -45 0 -14 7 -35 15 -45 8 -11 15 -32 15 -47 0 -14 7 -32 15 -39
8 -7 15 -25 15 -40 0 -15 7 -33 15 -40 8 -7 15 -21 15 -30 0 -10 6 -31 14 -47
7 -15 21 -45 30 -66 36 -84 49 -113 58 -127 4 -8 11 -22 14 -30 8 -20 73 -151
84 -170 5 -8 11 -22 14 -30 4 -8 15 -28 26 -45 11 -16 24 -40 30 -53 5 -12 28
-50 50 -83 22 -33 40 -63 40 -66 0 -3 14 -25 30 -50 17 -24 30 -46 30 -49 0
-5 55 -82 79 -110 5 -6 30 -42 56 -80 26 -38 51 -71 55 -74 4 -3 25 -27 45
-55 206 -271 592 -642 869 -835 103 -71 121 -85 124 -92 2 -5 8 -8 13 -8 9 0
65 -36 79 -50 7 -7 41 -28 65 -40 11 -6 34 -19 50 -30 17 -11 39 -24 50 -30
11 -6 34 -19 50 -30 17 -11 36 -22 42 -25 7 -3 19 -7 25 -10 7 -3 27 -14 43
-25 17 -11 37 -22 45 -26 8 -3 22 -10 30 -15 8 -5 22 -12 30 -15 8 -3 22 -10
30 -15 8 -5 22 -12 30 -15 8 -3 28 -12 43 -20 16 -7 34 -14 42 -14 7 0 18 -7
25 -15 7 -8 23 -15 35 -15 12 0 28 -7 35 -15 7 -8 21 -15 30 -15 10 0 33 -7
52 -16 76 -38 90 -44 107 -44 9 0 26 -7 37 -15 10 -8 31 -15 45 -15 14 0 34
-7 45 -15 10 -8 31 -15 45 -15 14 0 34 -7 45 -15 10 -8 33 -15 50 -15 16 0 39
-7 50 -15 10 -8 33 -15 49 -15 17 0 43 -7 59 -15 15 -8 41 -15 57 -15 17 0 46
-7 66 -15 19 -8 51 -15 70 -15 18 0 50 -7 70 -15 19 -8 55 -15 78 -15 23 0 62
-7 85 -15 23 -8 70 -15 104 -15 33 0 90 -7 126 -16 96 -23 884 -23 980 0 36 9
90 16 120 16 30 0 77 7 104 15 27 8 68 15 91 15 24 0 59 7 78 15 20 8 53 15
74 15 21 1 49 7 63 15 14 8 40 14 58 15 18 0 43 5 55 12 12 6 40 15 62 19 22
4 55 12 73 18 17 6 47 16 65 22 17 6 46 14 62 17 17 2 39 11 50 18 11 8 29 14
40 14 12 0 30 7 41 15 10 8 28 15 40 15 11 0 29 7 40 15 10 8 27 15 36 15 9 0
29 6 45 14 27 14 66 31 143 63 19 9 42 19 50 24 8 5 22 12 30 15 16 7 145 70
173 85 9 5 25 13 35 19 9 5 31 16 47 24 17 8 53 29 80 45 28 17 57 34 65 38 8
4 41 25 75 47 33 23 68 45 77 51 67 40 354 250 389 284 9 9 45 41 80 71 195
169 290 264 459 459 30 35 62 71 71 80 34 34 240 316 284 389 6 9 28 44 50 77
46 70 51 78 86 142 15 26 36 64 48 83 11 19 23 42 27 50 3 8 9 22 14 30 5 8
25 49 45 90 20 41 41 82 46 90 5 8 12 22 15 30 3 8 12 30 20 47 8 18 21 50 30
70 9 21 22 51 30 66 8 16 14 36 14 45 0 9 7 26 15 36 8 11 15 29 15 40 0 12 7
30 15 40 8 11 15 29 15 41 0 11 6 29 14 40 7 11 16 34 18 50 3 17 10 44 16 60
6 17 16 46 22 65 7 19 15 53 19 75 4 22 13 50 19 62 7 12 12 37 12 55 1 18 7
44 15 58 8 14 14 42 15 63 0 21 7 54 15 74 8 19 15 54 15 78 0 23 7 64 15 91
8 27 15 74 15 104 0 30 7 84 16 120 23 96 23 884 0 980 -9 36 -16 93 -16 126
0 34 -7 81 -15 104 -8 23 -15 62 -15 85 0 23 -7 59 -15 78 -8 20 -15 52 -15
70 0 19 -7 51 -15 70 -8 20 -15 49 -15 66 0 16 -7 42 -15 57 -8 16 -15 43 -15
59 0 17 -7 39 -15 49 -8 11 -15 34 -15 50 0 17 -7 40 -15 50 -8 11 -15 31 -15
45 0 14 -7 35 -15 45 -8 11 -15 31 -15 45 0 14 -7 35 -15 45 -8 11 -15 28 -15
37 0 10 -7 31 -15 48 -8 17 -22 45 -30 62 -8 17 -15 39 -15 49 0 9 -7 23 -15
30 -8 7 -15 23 -15 35 0 12 -7 28 -15 35 -8 7 -15 18 -15 25 0 12 -18 52 -42
95 -4 8 -11 22 -14 30 -3 8 -10 22 -15 30 -5 8 -11 20 -13 25 -2 6 -7 17 -10
25 -3 8 -15 29 -26 45 -11 17 -22 37 -26 45 -3 8 -10 22 -15 30 -5 8 -14 24
-19 35 -6 11 -19 34 -30 50 -11 17 -24 39 -30 50 -6 11 -19 34 -30 50 -11 17
-23 37 -27 45 -3 8 -9 17 -12 20 -13 11 -51 70 -51 79 0 5 -3 11 -7 13 -8 3
-22 21 -93 124 -192 277 -565 664 -835 869 -27 20 -52 41 -55 45 -3 4 -36 29
-74 55 -38 26 -74 51 -80 56 -27 23 -102 76 -116 82 -8 4 -28 16 -45 27 -16
11 -37 23 -45 27 -8 4 -40 24 -72 45 -32 21 -68 43 -80 48 -13 6 -36 19 -53
30 -16 11 -37 22 -45 26 -8 3 -22 9 -30 14 -8 5 -49 25 -90 45 -41 20 -82 41
-90 46 -8 5 -22 12 -30 15 -8 3 -30 12 -47 20 -18 8 -50 21 -70 30 -21 9 -51
23 -66 30 -16 8 -37 14 -47 14 -9 0 -23 7 -30 15 -7 8 -25 15 -40 15 -15 0
-33 7 -40 15 -7 8 -25 15 -39 15 -15 0 -36 7 -47 15 -10 8 -31 15 -45 15 -14
0 -34 7 -45 15 -10 8 -32 15 -49 15 -16 0 -39 7 -49 15 -11 8 -34 15 -50 15
-17 1 -42 7 -56 15 -14 8 -41 15 -60 15 -19 0 -46 7 -60 15 -14 8 -42 14 -63
15 -21 0 -54 7 -74 15 -19 8 -55 15 -78 15 -23 0 -62 7 -85 15 -23 8 -66 15
-94 15 -28 0 -78 7 -111 15 -73 17 -667 27 -900 15z m-875 -3166 c93 -20 175
-42 215 -59 17 -7 50 -21 75 -31 242 -99 525 -370 650 -624 18 -36 36 -73 41
-82 10 -19 38 -110 62 -198 30 -108 42 -297 28 -437 -7 -71 -19 -148 -26 -173
-7 -25 -15 -56 -18 -70 -12 -60 -76 -210 -118 -275 -10 -16 -22 -37 -26 -45
-17 -38 -129 -173 -205 -246 -89 -88 -219 -188 -290 -223 -23 -12 -50 -26 -58
-30 -8 -5 -31 -16 -50 -24 -273 -118 -580 -139 -885 -60 -100 25 -247 89 -319
138 -20 14 -39 25 -42 25 -16 0 -142 108 -230 196 -165 168 -265 338 -331 564
-36 123 -52 380 -34 523 15 116 60 288 90 345 5 9 19 37 31 62 12 25 30 59 41
75 10 17 22 37 26 45 19 42 131 175 214 255 93 90 171 155 184 155 3 0 21 11
38 24 18 14 43 29 57 35 14 6 32 15 40 20 16 10 77 37 125 57 42 17 128 40
210 57 102 22 407 22 505 1z m3346 1 c27 -8 57 -15 66 -15 23 0 160 -64 223
-105 119 -76 255 -228 313 -350 69 -145 85 -219 85 -390 0 -151 -7 -196 -50
-310 -75 -200 -247 -391 -435 -483 -45 -22 -47 -24 -36 -50 7 -15 18 -34 25
-43 7 -8 13 -18 13 -21 0 -4 19 -39 43 -80 24 -40 47 -80 51 -88 4 -8 12 -24
19 -35 7 -11 37 -63 67 -115 30 -52 60 -104 67 -115 7 -11 15 -27 19 -35 4 -8
26 -46 49 -85 22 -38 44 -77 48 -85 4 -8 16 -28 27 -45 11 -16 23 -37 27 -45
4 -8 20 -37 35 -63 16 -27 26 -53 23 -58 -4 -5 -111 -9 -250 -9 l-244 0 -34
58 c-18 31 -36 64 -40 72 -4 8 -16 29 -27 45 -11 17 -24 39 -30 50 -6 11 -16
29 -23 40 -7 11 -30 51 -52 90 -22 38 -45 79 -52 90 -7 11 -17 29 -23 40 -6
11 -19 34 -30 50 -11 17 -23 37 -27 45 -4 8 -32 58 -63 110 -31 52 -59 102
-63 110 -19 38 -36 63 -49 71 -7 5 -173 9 -369 9 -286 0 -359 -3 -368 -13 -7
-10 -12 -145 -13 -438 l-3 -424 -210 0 -210 0 -3 1318 -2 1317 728 0 c617 0
736 -2 778 -15z"/>
<path d="M2865 5361 c-99 -11 -236 -62 -335 -125 -179 -113 -356 -360 -384
-536 -3 -19 -10 -55 -15 -80 -23 -103 -4 -296 40 -420 75 -211 247 -405 444
-498 129 -61 190 -74 365 -79 122 -4 169 -1 220 12 207 53 371 160 504 330 40
52 48 66 89 150 60 124 87 240 87 375 0 245 -85 445 -263 623 -117 116 -234
186 -387 230 -63 19 -274 29 -365 18z"/>
<path d="M5531 5357 c-14 -17 -12 -839 2 -854 5 -4 219 -8 475 -8 494 0 503 1
600 49 61 30 153 124 192 198 34 62 34 65 34 188 1 122 0 127 -32 190 -50 98
-124 168 -237 224 -38 19 -64 21 -531 24 -420 3 -492 1 -503 -11z"/>
</g>
</svg>
