<?xml version="1.0"?>
<svg width="500" height="500" xmlns="http://www.w3.org/2000/svg" stroke="null" style="vector-effect: non-scaling-stroke;" preserveAspectRatio="xMidYMid meet">
 <metadata stroke="null" style="vector-effect: non-scaling-stroke;">Created by potrace 1.10, written by Peter Selinger 2001-2011</metadata>

 <g stroke="null">
  <title stroke="null">background</title>
  <rect stroke="null" fill="none" id="canvas_background" height="502" width="502" y="-1" x="-1"/>
 </g>
 <g stroke="null">
  <title stroke="null">Layer 1</title>
  <g id="svg_1" fill="#ffffff" transform="translate(0,900) scale(0.10000000149011612,-0.10000000149011612) ">
   <path stroke="null" id="svg_2" d="m2327.081055,8853.736328c-43.380371,-2.117188 -88.876465,-6.878906 -100.515137,-10.051758c-11.638428,-3.174805 -34.386719,-5.820313 -50.257324,-5.820313c-15.87085,0 -38.618896,-3.702148 -50.257324,-7.93457c-11.638672,-4.233398 -31.212646,-7.40625 -43.380371,-7.935547c-12.167725,0 -28.567383,-2.645508 -37.031738,-6.348633c-7.935303,-3.173828 -26.450928,-7.40625 -41.264038,-10.051758c-28.567261,-4.231445 -64.541016,-12.695313 -89.934204,-21.689453c-8.4646,-3.173828 -25.393311,-6.87793 -37.03186,-8.993164c-11.63855,-2.117188 -26.451294,-6.87793 -32.799561,-10.051758c-6.348389,-3.704102 -16.928833,-6.347656 -23.806152,-6.347656c-6.877441,0 -16.929077,-3.174805 -22.748169,-7.407227c-5.819458,-3.703125 -17.457886,-8.464844 -26.451538,-9.522461c-19.044922,-3.702148 -47.612183,-13.225586 -67.186279,-23.277344c-7.406128,-4.231445 -17.457764,-7.40625 -21.689941,-7.40625c-4.761108,0 -15.341919,-3.704102 -24.335327,-7.93457c-8.993286,-4.233398 -23.80603,-11.639648 -32.799561,-15.87207c-8.993286,-4.231445 -20.631836,-7.93457 -25.922119,-7.93457c-4.761475,0 -12.167847,-3.703125 -15.87085,-7.935547c-3.703369,-4.232422 -12.167847,-7.93457 -18.516113,-7.93457c-6.348145,0 -14.812622,-3.704102 -18.515625,-7.935547c-3.703369,-4.232422 -9.522461,-7.936523 -12.696777,-7.936523c-6.348389,0 -122.734009,-58.192383 -175.107544,-87.818359c-17.457886,-9.521484 -36.502686,-20.102539 -42.322266,-23.276367c-5.819214,-3.173828 -17.457764,-10.051758 -26.451172,-15.871094c-8.464478,-5.819336 -19.044922,-12.167969 -23.2771,-13.754883c-34.386841,-16.928711 -196.268677,-134.37207 -275.62262,-200.500977c-57.66394,-48.141602 -240.177856,-230.655273 -288.319214,-288.318848c-66.128235,-79.353516 -183.572021,-241.23584 -200.500854,-275.623535c-1.587067,-4.231445 -7.935394,-14.282715 -13.7547,-23.275879c-5.819244,-8.464844 -12.696594,-20.632324 -15.870758,-26.452148c-3.174133,-5.818848 -13.754669,-24.864258 -23.277161,-42.321289c-29.625427,-52.374023 -87.818298,-168.759277 -87.818298,-175.10791c0,-3.173828 -3.703156,-8.993652 -7.935333,-12.696777c-4.2323,-3.703125 -7.935425,-12.166992 -7.935425,-18.515625c0,-6.348145 -3.703217,-14.812988 -7.935425,-18.516602c-4.232208,-3.702148 -7.935394,-11.109375 -7.935394,-15.870605c0,-5.290527 -3.703156,-16.928711 -7.935364,-25.922363c-4.232208,-8.993164 -11.63858,-23.805664 -15.870789,-32.799316c-4.232239,-8.992676 -7.935394,-19.57373 -7.935394,-24.335449c0,-4.231934 -3.174133,-14.283691 -7.406342,-21.688965c-7.935425,-15.87207 -17.457886,-42.852051 -24.335205,-67.187012c-2.645111,-8.464844 -7.406403,-24.334961 -10.580536,-34.386719c-3.703186,-10.05127 -8.464417,-25.393066 -11.63858,-34.386719c-3.174133,-8.464844 -7.406342,-25.393555 -9.522461,-37.032227c-2.116089,-11.638184 -6.348312,-28.037598 -9.522476,-37.031738c-8.993423,-25.393066 -17.45784,-61.366699 -21.690063,-89.934082c-2.645126,-14.283691 -6.877335,-33.329102 -10.051498,-41.263672c-3.703171,-8.464844 -6.348297,-24.864746 -6.348297,-37.031738c-0.529022,-12.167969 -3.703186,-31.741699 -7.935394,-43.380859c-4.232208,-11.638184 -7.935394,-34.38623 -7.935394,-50.256836c0,-15.871094 -4.232208,-44.438965 -8.993439,-63.483398c-6.87735,-29.09668 -8.464417,-70.889648 -8.464417,-280.384277c0,-209.494629 1.587067,-251.287109 8.464417,-280.383301c4.76123,-19.04541 8.993439,-46.554199 8.993439,-61.367188c0,-14.812988 3.703186,-37.560547 7.935394,-49.728027c4.232208,-12.168457 7.935394,-32.800293 7.935394,-44.967773c0,-12.167969 3.703186,-31.212402 7.935394,-41.26416c4.232193,-10.580566 7.935379,-28.038086 7.935379,-39.147949c0.529022,-11.109375 3.703186,-25.921875 7.935394,-33.328613c4.232224,-7.40625 7.935379,-21.689941 7.935379,-31.741211c0,-10.05127 3.703201,-24.335449 7.935394,-31.741699c4.232224,-7.40625 7.406372,-20.631836 7.935394,-29.625488c0,-8.464355 3.703156,-20.631836 7.935425,-26.451172c4.232178,-5.290527 7.935364,-16.929199 7.935364,-25.922363c0,-8.464355 3.703201,-20.632324 7.935364,-25.921875c4.232239,-5.819824 7.935425,-16.399902 7.935425,-23.806641c0,-7.406738 3.703186,-18.515625 7.935394,-23.805664c4.232178,-5.819824 7.935364,-16.929199 7.935364,-24.864746c0,-7.40625 3.703217,-16.928711 7.935425,-20.631836c4.232178,-3.703125 7.935364,-13.225586 7.935364,-21.161133c0,-7.935059 3.703156,-17.458496 7.935394,-21.161133c4.232208,-3.702637 7.935394,-11.109375 7.935394,-15.870605c0,-5.290527 3.174133,-16.399414 7.406372,-24.86377c3.703186,-7.936035 11.109528,-23.806641 15.870758,-34.916504c19.044952,-44.437988 25.922302,-59.779785 30.683533,-67.185547c2.116058,-4.23291 5.819275,-11.638672 7.406372,-15.871582c4.232208,-10.580566 38.618866,-79.882813 44.438171,-89.934082c2.645142,-4.231934 5.819305,-11.638184 7.406372,-15.870605c2.116089,-4.231934 7.935394,-14.812988 13.754639,-23.806641c5.819305,-8.463867 12.696625,-21.160645 15.870758,-28.037598c2.645142,-6.349121 14.812775,-26.45166 26.451355,-43.909668c11.63858,-17.458008 21.161011,-33.328613 21.161011,-34.915527c0,-1.586914 7.406372,-13.225098 15.870789,-26.45166c8.993408,-12.696777 15.870789,-24.334961 15.870789,-25.921875c0,-2.645508 29.096436,-43.380371 41.793091,-58.192871c2.645081,-3.174805 15.870728,-22.219238 29.625488,-42.322266c13.7547,-20.103027 26.980225,-37.561035 29.096375,-39.147461c2.11615,-1.587402 13.225708,-14.28418 23.806274,-29.097168c108.979248,-143.365723 313.18335,-339.634277 459.723511,-441.736328c54.489746,-37.561035 64.012207,-44.966797 65.599365,-48.67041c1.057861,-2.645508 4.232056,-4.231934 6.877319,-4.231934c4.761108,0 34.386475,-19.045898 41.792847,-26.451172c3.703369,-3.703125 21.690186,-14.812988 34.386719,-21.162109c5.819336,-3.17334 17.986816,-10.05127 26.451416,-15.870605c8.993408,-5.819336 20.632202,-12.695801 26.451172,-15.870605c5.819458,-3.174316 17.986938,-10.05127 26.451416,-15.870605c8.99353,-5.819336 19.044922,-11.638672 22.218994,-13.225586c3.703247,-1.586914 10.051636,-3.703613 13.225708,-5.290527c3.703247,-1.586914 14.283813,-7.40625 22.748291,-13.225098c8.993408,-5.819824 19.573853,-11.638672 23.806152,-13.754883c4.232178,-1.586914 11.638428,-5.290039 15.870728,-7.936035c4.232178,-2.644043 11.63855,-6.347656 15.870728,-7.93457c4.232056,-1.587402 11.63855,-5.290039 15.87085,-7.935547c4.232178,-2.64502 11.63855,-6.348145 15.870728,-7.935059c4.232056,-1.587402 14.812744,-6.348633 22.748047,-10.581055c8.464478,-3.703125 17.986938,-7.40625 22.219238,-7.40625c3.703125,0 9.522339,-3.703125 13.225708,-7.935547c3.703003,-4.232422 12.16748,-7.935059 18.515625,-7.935059c6.348267,0 14.812744,-3.703125 18.516113,-7.935547c3.703003,-4.232422 11.109375,-7.935547 15.87085,-7.935547c5.290283,0 17.457642,-3.702637 27.509277,-8.464355c40.205933,-20.103027 47.612305,-23.276855 56.605713,-23.276855c4.761353,0 13.754639,-3.703613 19.574097,-7.935547c5.290161,-4.232422 16.399536,-7.935547 23.80603,-7.935547c7.406494,0 17.986694,-3.703125 23.806152,-7.935547c5.290283,-4.231934 16.39978,-7.935059 23.806274,-7.935059c7.406494,0 17.986938,-3.703125 23.80603,-7.935059c5.290283,-4.232422 17.45813,-7.935547 26.451538,-7.935547c8.464478,0 20.631958,-3.703613 26.451172,-7.935547c5.290161,-4.232422 17.457764,-7.936035 25.922363,-7.936035c8.993164,0 22.747925,-3.702637 31.212402,-7.93457c7.935425,-4.232422 21.690063,-7.936035 30.154663,-7.936035c8.993164,0 24.335205,-3.702637 34.915649,-7.93457c10.05127,-4.232422 26.980225,-7.936035 37.031616,-7.936035c9.522705,0 26.451294,-3.703125 37.031982,-7.935547c10.05127,-4.231934 29.096191,-7.935059 41.263916,-7.935059c12.167725,0 32.799561,-3.703125 44.967041,-7.935059c12.167725,-4.232422 37.031982,-7.936035 55.018799,-7.936035c17.458008,0 47.612305,-3.702637 66.657227,-8.464355c50.786377,-12.16748 467.65918,-12.16748 518.445557,0c19.044922,4.761719 47.612305,8.464355 63.483154,8.464355c15.87085,0 40.735107,3.703613 55.018311,7.936035c14.28418,4.231934 35.974121,7.935059 48.141846,7.935059c12.696533,0 31.212646,3.703125 41.263672,7.935059c10.580566,4.232422 28.038818,7.935547 39.148438,7.935547c11.109375,0.528809 25.922119,3.703613 33.328613,7.936035c7.406494,4.231934 21.161133,7.405762 30.68335,7.93457c9.522461,0 22.748291,2.645508 29.096436,6.348633c6.348145,3.174316 21.160889,7.935547 32.799316,10.05127c11.638916,2.116211 29.096436,6.348145 38.618896,9.522949c8.993408,3.173828 24.864502,8.464355 34.386963,11.638184c8.993652,3.174316 24.335205,7.40625 32.799805,8.993652c8.993164,1.058105 20.631348,5.819824 26.450928,9.522461c5.819336,4.231934 15.341553,7.40625 21.161133,7.40625c6.348633,0 15.870605,3.703125 21.689941,7.935547c5.290771,4.231934 14.813232,7.935547 21.161133,7.935547c5.819092,0 15.341797,3.702637 21.161377,7.935059c5.290039,4.231934 14.283203,7.935547 19.044678,7.935547c4.76123,0 15.342041,3.173828 23.806641,7.40625c14.282959,7.406738 34.915283,16.399902 75.650146,33.328613c10.051758,4.76123 22.218994,10.05127 26.451416,12.696777c4.232422,2.64502 11.638428,6.348145 15.87085,7.935547c8.463867,3.703125 76.70874,37.032227 91.521484,44.966797c4.760986,2.645508 13.225586,6.877441 18.515869,10.051758c4.761475,2.64502 16.399658,8.464844 24.864258,12.696777c8.993164,4.232422 28.038574,15.341797 42.321777,23.806152c14.812988,8.993652 30.154541,17.986328 34.386963,20.103027c4.232178,2.115723 21.69043,13.225098 39.676758,24.86377c17.458008,12.16748 35.973633,23.806641 40.735107,26.980469c35.444824,21.161621 187.275391,132.256836 205.79126,150.243164c4.76123,4.761719 23.806152,21.69043 42.322266,37.561035c103.160156,89.405273 153.41748,139.663086 242.823242,242.822754c15.870605,18.516113 32.799316,37.561035 37.560547,42.322754c17.986816,17.986328 126.966309,167.171875 150.243164,205.791016c3.174805,4.76123 14.812988,23.276855 26.451172,40.734375c24.335938,37.032227 26.980469,41.264648 45.49707,75.12207c7.93457,13.754883 19.044922,33.85791 25.392578,43.90918c5.819336,10.05127 12.16748,22.219238 14.28418,26.451172c1.586426,4.232422 4.760742,11.638672 7.405762,15.870605c2.645508,4.232422 13.226563,25.921875 23.806641,47.612305c10.580566,21.689941 21.689453,43.380371 24.334961,47.612793c2.645508,4.231934 6.348145,11.638184 7.935059,15.871094c1.587891,4.231934 6.348633,15.870605 10.580566,24.863281c4.232422,9.522461 11.109863,26.45166 15.871582,37.032715c4.760742,11.108887 11.637695,26.97998 15.870117,34.915039c4.232422,8.464355 7.40625,19.044922 7.40625,23.806152c0,4.76123 3.703613,13.754883 7.935547,19.04541c4.23291,5.819336 7.936035,15.341309 7.936035,21.161133c0,6.348145 3.702637,15.870605 7.93457,21.161133c4.232422,5.818848 7.936035,15.341309 7.936035,21.689453c0,5.819336 3.173828,15.341797 7.405273,21.161133c3.704102,5.819336 8.465332,17.986816 9.523438,26.45166c1.586914,8.992676 5.290527,23.276855 8.464355,31.741211c3.174316,8.993164 8.464844,24.335938 11.638184,34.386719c3.703125,10.051758 7.936523,28.038574 10.05127,39.677734c2.116699,11.637695 6.87793,26.450684 10.05127,32.798828c3.704102,6.348633 6.349121,19.574219 6.349121,29.09668c0.528809,9.522461 3.702637,23.277344 7.935547,30.683594c4.231934,7.40625 7.405762,22.21875 7.935059,33.328125c0,11.109375 3.704102,28.567383 7.935547,39.147949c4.232422,10.05127 7.935059,28.567383 7.935059,41.26416c0,12.16748 3.703613,33.85791 7.936035,48.141113c4.231934,14.28418 7.935547,39.147949 7.935547,55.019043c0,15.870605 3.702637,44.4375 8.463867,63.48291c12.166992,50.786621 12.166992,467.65918 0,518.445313c-4.76123,19.044922 -8.463867,49.199707 -8.463867,66.657715c0,17.987305 -3.703613,42.851074 -7.935547,55.018555c-4.232422,12.168457 -7.936035,32.799805 -7.936035,44.967773c0,12.166992 -3.702637,31.211914 -7.935059,41.263184c-4.231445,10.581055 -7.935547,27.510254 -7.935547,37.032227c0,10.05127 -3.703125,26.980469 -7.935059,37.031738c-4.23291,10.580566 -7.935547,25.921875 -7.935547,34.916016c0,8.464355 -3.703125,22.21875 -7.935547,30.154297c-4.232422,8.464844 -7.935059,22.748047 -7.935059,31.211914c0,8.994141 -3.703125,20.632813 -7.935547,25.92334c-4.232422,5.818848 -7.935547,17.986328 -7.935547,26.450684c0,8.993652 -3.703125,21.160645 -7.935547,26.45166c-4.231934,5.819336 -7.935059,16.399414 -7.935059,23.805664c0,7.406738 -3.703125,18.516113 -7.935547,23.806641c-4.232422,5.818848 -7.935059,16.399902 -7.935059,23.806152c0,7.405762 -3.703613,18.515137 -7.936035,23.806152c-4.231934,5.818848 -7.93457,14.8125 -7.93457,19.574219c0,5.290039 -3.703125,16.399414 -7.936035,25.393066c-4.231934,8.993164 -11.638184,23.806641 -15.870605,32.799805c-4.231934,8.992676 -7.935059,20.631836 -7.935059,25.921387c0,4.761719 -3.704102,12.168457 -7.935547,15.871582c-4.232422,3.702637 -7.935547,12.16748 -7.935547,18.515625c0,6.348145 -3.703125,14.8125 -7.936035,18.516113c-4.231445,3.703613 -7.935059,9.522461 -7.935059,13.225098c0,6.348633 -9.522461,27.510254 -22.21875,50.258301c-2.116211,4.231934 -5.818848,11.637695 -7.406738,15.870117c-1.586914,4.232422 -5.289551,11.638672 -7.93457,15.871094c-2.645996,4.231934 -5.819336,10.580566 -6.877441,13.225098c-1.058105,3.174805 -3.703125,8.993652 -5.290527,13.226074c-1.586914,4.231934 -7.935547,15.341797 -13.755371,23.805664c-5.818848,8.994141 -11.638184,19.574219 -13.753906,23.806641c-1.586914,4.232422 -5.290039,11.638184 -7.935547,15.870605c-2.64502,4.231934 -7.40625,12.696777 -10.05127,18.516113c-3.174316,5.819824 -10.05127,17.986816 -15.871094,26.45166c-5.819336,8.993164 -12.696777,20.631348 -15.870605,26.451172c-3.173828,5.819336 -10.05127,17.986328 -15.871094,26.45166c-5.818848,8.992676 -12.16748,19.57373 -14.283203,23.806152c-1.587402,4.232422 -4.76123,8.992676 -6.348633,10.580078c-6.876953,5.818848 -26.980469,37.03125 -26.980469,41.792969c0,2.645508 -1.587402,5.818848 -3.702148,6.877441c-4.23291,1.586914 -11.63916,11.109375 -49.199707,65.599121c-101.57373,146.540039 -298.900391,351.273438 -441.737549,459.723633c-14.283447,10.581055 -27.509521,21.69043 -29.095947,23.806641c-1.587402,2.115234 -19.04541,15.341797 -39.148193,29.09668c-20.103027,13.753906 -39.148438,26.979492 -42.322266,29.625c-14.283936,12.166992 -53.960693,40.205078 -61.367432,43.379883c-4.231934,2.116211 -14.8125,8.463867 -23.805664,14.28418c-8.464111,5.819336 -19.574219,12.167969 -23.806641,14.28418c-4.232178,2.115234 -21.160645,12.696289 -38.089844,23.805664c-16.928711,11.109375 -35.973633,22.748047 -42.321533,25.393555c-6.877441,3.172852 -19.04541,10.051758 -28.038574,15.869141c-8.4646,5.820313 -19.57373,11.638672 -23.805908,13.755859c-4.232666,1.586914 -11.638916,4.760742 -15.871094,7.40625c-4.232178,2.645508 -25.922363,13.226563 -47.612549,23.806641c-21.689941,10.579102 -43.380371,21.689453 -47.612061,24.333984c-4.232422,2.646484 -11.638428,6.348633 -15.87085,7.936523c-4.232422,1.586914 -15.871094,6.348633 -24.864258,10.580078c-9.522217,4.232422 -26.451172,11.109375 -37.031494,15.871094c-11.109619,4.760742 -26.980713,12.167969 -34.915771,15.871094c-8.465088,4.231445 -19.573975,7.40625 -24.864258,7.40625c-4.76123,0 -12.167969,3.702148 -15.870605,7.935547c-3.703613,4.230469 -13.226074,7.93457 -21.160889,7.93457c-7.936035,0 -17.458252,3.704102 -21.161377,7.93457c-3.703369,4.233398 -13.226074,7.936523 -20.632324,7.936523c-7.935303,0 -19.044922,3.702148 -24.864258,7.935547c-5.290283,4.232422 -16.399902,7.93457 -23.806152,7.93457c-7.406006,0 -17.986816,3.704102 -23.806396,7.935547c-5.289795,4.232422 -16.928711,7.936523 -25.921875,7.936523c-8.4646,0 -20.63208,3.703125 -25.922363,7.93457c-5.81958,4.232422 -17.986816,7.93457 -26.451172,7.93457c-8.993652,0.530273 -22.218994,3.704102 -29.625488,7.9375c-7.406494,4.230469 -21.69043,7.93457 -31.741699,7.93457c-10.051514,0 -24.335205,3.702148 -31.741455,7.93457c-7.40625,4.233398 -22.218994,7.40625 -33.328613,7.935547c-11.109375,0 -28.567627,3.703125 -39.148193,7.936523c-10.051025,4.230469 -29.096191,7.93457 -41.263916,7.93457c-12.16748,0 -32.799316,3.702148 -44.967041,7.935547c-12.16748,4.232422 -34.916016,7.93457 -49.728516,7.93457c-14.812988,0 -41.263916,3.704102 -58.722168,7.935547c-38.618408,8.994141 -352.860107,14.28418 -476.123047,7.936523zm-462.897583,-1674.897461c49.199341,-10.580078 92.579468,-22.21875 113.740601,-31.212402c8.993286,-3.703125 26.45105,-11.109863 39.676758,-16.398926c128.02417,-52.374512 277.738281,-195.740234 343.867188,-330.113281c9.521973,-19.044922 19.044678,-38.618652 21.689941,-43.379883c5.290039,-10.051758 20.102783,-58.193359 32.799561,-104.747559c15.870605,-57.134277 22.218994,-157.120117 14.8125,-231.184082c-3.702881,-37.561035 -10.05127,-78.29541 -13.754639,-91.521484c-3.703125,-13.225586 -7.935547,-29.625488 -9.522461,-37.031738c-6.348633,-31.741699 -40.205811,-111.095703 -62.425049,-145.481445c-5.290527,-8.464844 -11.638672,-19.574707 -13.754883,-23.806641c-8.993408,-20.103516 -68.244385,-91.521484 -108.450195,-130.141113c-47.083008,-46.554199 -115.856689,-99.456055 -153.41748,-117.972168c-12.167725,-6.348145 -26.451294,-13.755371 -30.683472,-15.870605c-4.232056,-2.645996 -16.399658,-8.465332 -26.451172,-12.697266c-144.424194,-62.424805 -306.835205,-73.534668 -468.18811,-31.741211c-52.90271,13.225586 -130.669312,47.083008 -168.759155,73.006348c-10.580811,7.405762 -20.632202,13.224609 -22.219238,13.224609c-8.464478,0 -75.121582,57.135254 -121.676147,103.689453c-87.289185,88.875977 -140.191772,178.810547 -175.107422,298.370605c-19.045044,65.070313 -27.509521,201.030273 -17.986938,276.680664c7.935425,61.366699 31.741577,152.359375 47.612427,182.513672c2.64502,4.761719 10.051392,19.574219 16.39978,32.800293c6.348267,13.224609 15.870728,31.212402 21.690063,39.67627c5.290283,8.993652 11.638672,19.574707 13.754639,23.806641c10.051514,22.21875 69.302368,92.57959 113.21167,134.901367c49.199463,47.612305 90.463379,81.999512 97.340698,81.999512c1.587036,0 11.109497,5.818848 20.102905,12.696289c9.522583,7.40625 22.748291,15.341797 30.154541,18.515625c7.406372,3.174316 16.928955,7.93457 21.161133,10.580566c8.464355,5.290527 40.734985,19.57373 66.128174,30.154785c22.218994,8.993164 67.715332,21.161133 111.095581,30.154297c53.960571,11.638184 215.313477,11.638184 267.158203,0.528809zm1770.120728,0.529297c14.283691,-4.232422 30.154297,-7.935059 34.916016,-7.935059c12.167236,0 84.644043,-33.858398 117.972656,-55.54834c62.953857,-40.206055 134.901123,-120.617676 165.585449,-185.15918c36.502441,-76.708008 44.966797,-115.856445 44.966797,-206.319824c0,-79.882813 -3.702881,-103.689453 -26.450928,-163.998535c-39.677002,-105.804688 -130.669922,-206.848145 -230.126465,-255.519043c-23.806396,-11.638672 -24.864502,-12.696777 -19.04541,-26.45166c3.703613,-7.935059 9.522949,-17.986816 13.22583,-22.747559c3.703369,-4.23291 6.877441,-9.522949 6.877441,-11.109863c0,-2.116211 10.05127,-20.632324 22.748047,-42.322266c12.696533,-21.161133 24.864258,-42.322266 26.980469,-46.554199c2.115967,-4.232422 6.348145,-12.696289 10.051758,-18.515625c3.702881,-5.819336 19.573242,-33.329102 35.444092,-60.837891c15.871338,-27.509766 31.741699,-55.019043 35.444824,-60.838379c3.703613,-5.818848 7.935791,-14.283691 10.051758,-18.515137c2.116211,-4.23291 13.754639,-24.336426 25.922119,-44.967773c11.63916,-20.103516 23.2771,-40.735352 25.393555,-44.967285c2.115479,-4.232422 8.463867,-14.812988 14.283691,-23.806152c5.819092,-8.464355 12.16748,-19.574219 14.283691,-23.806152c2.116211,-4.232422 10.580322,-19.57373 18.515869,-33.328613c8.4646,-14.28418 13.754639,-28.039063 12.16748,-30.683594c-2.116455,-2.645508 -58.722412,-4.76123 -132.256348,-4.76123l-129.082764,0l-17.986572,30.683594c-9.522705,16.400391 -19.045166,33.857422 -21.161133,38.089844c-2.116211,4.231934 -8.464355,15.341797 -14.283691,23.806152c-5.819092,8.993164 -12.696289,20.631836 -15.87085,26.45166c-3.174072,5.818848 -8.464355,15.341309 -12.16748,21.160645c-3.703369,5.819824 -15.870361,26.980469 -27.509277,47.612305c-11.638428,20.103027 -23.806396,41.792969 -27.509766,47.612305c-3.702881,5.818848 -8.993164,15.341309 -12.16748,21.161133c-3.173584,5.818848 -10.051025,17.986816 -15.870361,26.450684c-5.81958,8.993652 -12.167969,19.574707 -14.283691,23.807129c-2.116455,4.231445 -16.928711,30.683105 -33.328857,58.192383c-16.399902,27.509277 -31.212158,53.960938 -33.328613,58.192871c-10.051514,20.103027 -19.044922,33.328613 -25.922607,37.560547c-3.702881,2.64502 -91.52124,4.762207 -195.210449,4.762207c-151.301514,0 -189.92041,-1.587891 -194.681641,-6.87793c-3.702637,-5.290039 -6.3479,-76.709473 -6.877197,-231.713379l-1.586914,-224.307129l-111.095703,0l-111.095215,0l-1.587402,697.255859l-1.057861,696.727051l385.131104,0c326.408936,0 389.363281,-1.057617 411.582031,-7.93457z"/>
   <path stroke="null" id="svg_3" d="m1660.508179,6949.770508c-52.373413,-5.818848 -124.850098,-32.799316 -177.223511,-66.12793c-94.695801,-59.780273 -188.333374,-190.449219 -203.146118,-283.557617c-1.587036,-10.052246 -5.290283,-29.09668 -7.935303,-42.322266c-12.167603,-54.489746 -2.116089,-156.592285 21.160889,-222.190918c39.677002,-111.625 130.669556,-214.255371 234.887695,-263.455078c68.244385,-32.270508 100.514893,-39.148438 193.094482,-41.793457c64.54126,-2.115234 89.405396,-0.528809 116.38562,6.348633c109.508423,28.038086 196.268921,84.644531 266.62915,174.578613c21.161133,27.509277 25.393555,34.915527 47.083252,79.353516c31.741699,65.600098 46.024902,126.966797 46.024902,198.384766c0,129.611328 -44.967041,235.416992 -139.133545,329.583496c-61.895874,61.366699 -123.79187,98.398926 -204.732788,121.67627c-33.328735,10.05127 -144.953125,15.341309 -193.094727,9.521973z"/>
   <path stroke="null" id="svg_4" d="m3070.891357,6947.654297c-7.40625,-8.993164 -6.3479,-443.852051 1.058105,-451.787598c2.645508,-2.116211 115.856689,-4.232422 251.287354,-4.232422c261.339111,0 266.100098,0.529297 317.415771,25.922363c32.270752,15.870117 80.940918,65.599121 101.572998,104.74707c17.986816,32.799805 17.986816,34.386719 17.986816,99.457031c0.529297,64.541016 0,67.186035 -16.928955,100.514648c-26.451172,51.844727 -65.598877,88.876465 -125.378906,118.501953c-20.103027,10.051758 -33.85791,11.109863 -280.912842,12.696777c-222.190918,1.586914 -260.280762,0.529297 -266.100342,-5.819824z"/>
  </g>
 </g>
</svg>