<svg width="580" height="399.99999999999994" xmlns="http://www.w3.org/2000/svg">
 <!-- Created with Method Draw - http://github.com/duopixel/Method-Draw/ -->

 <g>
  <title>Layer 1</title>
  <rect rx="5" id="svg_3" height="320" width="500" y="24" x="40" stroke-width="1.5" stroke="#ffffff" fill="none"/>
  <rect id="svg_5" height="270" width="480" y="34.799994" x="50" fill-opacity="null" stroke-width="1.5" stroke="#ffffff" fill="none"/>
  <ellipse ry="1" rx="1" id="svg_6" cy="29.399997" cx="290" stroke-width="1.5" stroke="#ffffff" fill="#ffffff"/>
  <metadata transform="matrix(0.024197527979627154,0,0,0.024197527979627154,0,0) ">Created by potrace 1.10, written by Peter Selinger 2001-2011</metadata>
  <g stroke="null" id="svg_14">
   <g id="svg_10" fill="#000000" transform="matrix(0.0031035525946494836,0,0,-0.0031035525946494836,-78.60542593893115,-85.10433444018975) ">
    <path fill="#ffffff" stroke="#ffffff" id="svg_11" d="m118718.864807,-127629.094788c-22,-14 -49,-29 -60,-35c-11,-5 -33,-18 -50,-29c-16,-11 -37,-23 -45,-27c-8,-4 -46,-25 -85,-48c-38,-22 -77,-44 -85,-48c-8,-4 -28,-16 -45,-27c-16,-11 -37,-23 -45,-27c-8,-4 -46,-26 -85,-48c-38,-23 -77,-44 -85,-48c-8,-4 -28,-16 -45,-27c-16,-11 -37,-23 -45,-27c-8,-4 -46,-25 -85,-48c-38,-22 -77,-44 -85,-48c-8,-4 -28,-16 -45,-27c-16,-11 -37,-23 -45,-27c-8,-4 -46,-26 -85,-48c-38,-23 -77,-44 -85,-48c-8,-4 -28,-16 -45,-27c-16,-11 -37,-23 -45,-27c-8,-4 -58,-32 -110,-63c-52,-31 -102,-59 -110,-63c-8,-4 -28,-16 -45,-26c-16,-11 -52,-32 -80,-47c-89,-49 -100,-55 -130,-74c-16,-11 -37,-23 -45,-27c-8,-4 -46,-26 -85,-48c-38,-23 -77,-44 -85,-48c-8,-4 -28,-16 -45,-27c-16,-11 -37,-23 -45,-27c-8,-4 -58,-32 -110,-63c-52,-31 -102,-59 -110,-63c-8,-4 -28,-16 -45,-27c-16,-11 -37,-23 -45,-27c-8,-4 -46,-25 -85,-48c-38,-22 -77,-44 -85,-48c-8,-4 -28,-16 -45,-27c-16,-11 -37,-23 -45,-27c-18,-8 -158,-89 -180,-103c-8,-6 -22,-13 -30,-17c-8,-4 -58,-32 -110,-63c-52,-31 -102,-59 -110,-63c-8,-4 -28,-16 -45,-27c-16,-11 -37,-23 -45,-27c-8,-4 -46,-26 -85,-48c-38,-23 -77,-44 -85,-48c-8,-4 -28,-16 -45,-27c-16,-11 -37,-23 -45,-27c-8,-4 -46,-26 -85,-48c-38,-23 -77,-44 -85,-48c-8,-4 -28,-16 -45,-27c-16,-11 -37,-23 -45,-27c-8,-4 -52,-29 -97,-55l-83,-49l0,-2204l0,-2205l40,-25c22,-14 57,-35 78,-46c20,-11 51,-29 67,-40c17,-10 37,-22 45,-26c8,-4 47,-25 85,-48c39,-22 77,-44 85,-48c8,-4 29,-16 45,-27c17,-11 37,-23 45,-27c18,-8 158,-89 180,-103c8,-6 22,-13 30,-17c8,-4 58,-32 110,-63c52,-31 102,-59 110,-63c8,-4 29,-16 45,-27c17,-11 37,-23 45,-27c8,-4 47,-25 85,-48c39,-22 77,-44 85,-48c8,-4 29,-16 45,-27c17,-11 37,-23 45,-27c8,-4 47,-26 85,-48c39,-23 77,-44 85,-48c8,-4 29,-16 45,-27c17,-11 37,-23 45,-27c8,-4 47,-25 85,-48c39,-22 77,-44 85,-48c8,-4 29,-16 45,-27c17,-11 37,-23 45,-27c8,-4 47,-26 85,-48c39,-23 77,-44 85,-48c8,-4 29,-16 45,-27c17,-11 37,-23 45,-27c8,-4 58,-32 110,-63c52,-31 102,-59 110,-63c8,-4 29,-16 45,-27c17,-11 39,-24 51,-29c19,-8 137,-77 174,-101c8,-6 22,-13 30,-17c8,-4 47,-26 85,-48c39,-23 77,-44 85,-48c8,-4 29,-16 45,-27c17,-11 37,-23 45,-27c8,-4 58,-32 110,-63c52,-31 102,-59 110,-63c8,-4 29,-16 45,-27c17,-11 37,-23 45,-27c8,-4 47,-25 85,-48c39,-22 77,-44 85,-48c8,-4 29,-16 45,-27c17,-11 37,-23 45,-27c8,-4 47,-26 85,-48c39,-23 77,-44 85,-48c8,-4 29,-16 45,-26c17,-11 51,-31 77,-45c26,-14 62,-35 80,-46c18,-11 39,-20 45,-20c7,0 41,17 75,38c35,21 70,41 78,45c8,4 29,16 45,27c17,11 37,23 45,27c8,4 47,26 85,48c39,23 77,44 85,48c8,4 22,11 30,17c22,14 212,125 230,133c8,4 29,16 45,27c17,11 37,23 45,27c8,4 47,25 85,48c39,22 77,44 85,48c8,4 29,16 45,27c17,11 37,23 45,27c8,4 47,26 85,48c39,23 77,44 85,48c8,4 29,16 45,27c17,11 37,23 45,27c8,4 47,25 85,48c39,22 77,44 85,48c8,4 29,16 45,27c17,11 37,23 45,27c8,4 47,26 85,48c39,23 77,44 85,48c8,4 29,16 45,27c17,11 37,23 45,27c8,4 58,32 110,63c52,31 102,59 110,63c8,4 29,16 45,27c17,11 37,23 45,27c8,4 47,25 85,48c39,22 77,44 85,48c8,4 24,13 35,20c11,7 63,37 115,67c52,30 104,60 115,67c11,7 27,16 35,20c8,4 58,32 110,63c52,31 102,59 110,63c8,4 29,16 45,27c17,11 37,23 45,27c8,4 47,25 85,48c39,22 77,44 85,48c8,4 29,16 45,27c17,11 37,23 45,27c8,4 47,26 85,48c39,23 77,44 85,48c8,4 29,16 45,27c17,11 37,23 45,27c8,4 47,25 85,48c39,22 77,44 85,48c8,4 29,16 45,26c17,11 47,29 67,40c21,11 56,32 78,46l40,25l0,2205l0,2204l-82,48c-46,27 -90,52 -98,56c-8,4 -28,16 -45,27c-16,11 -37,23 -45,27c-8,4 -46,26 -85,48c-38,23 -77,44 -85,48c-8,4 -28,16 -45,27c-16,11 -37,23 -45,27c-8,4 -58,32 -110,63c-52,31 -102,59 -110,63c-8,4 -24,13 -35,20c-11,7 -63,37 -115,67c-52,30 -104,60 -115,67c-11,7 -27,16 -35,20c-19,9 -210,120 -230,133c-8,6 -22,13 -30,17c-8,4 -58,32 -110,63c-52,31 -102,59 -110,63c-8,4 -28,16 -45,27c-16,11 -37,23 -45,27c-8,4 -46,25 -85,48c-38,22 -77,44 -85,48c-8,4 -28,16 -45,27c-16,11 -37,23 -45,27c-8,4 -46,26 -85,48c-38,23 -77,44 -85,48c-8,4 -28,16 -45,27c-16,11 -37,23 -45,27c-8,4 -46,25 -85,48c-38,22 -77,44 -85,48c-8,4 -28,16 -45,27c-16,11 -37,23 -45,27c-8,4 -46,25 -85,48c-38,22 -77,44 -85,48c-8,4 -28,16 -45,27c-16,11 -37,23 -45,27c-18,8 -208,119 -230,133c-8,6 -22,13 -30,17c-8,4 -46,25 -85,48c-38,22 -77,44 -85,48c-8,4 -28,16 -45,27c-16,11 -37,23 -45,27c-8,4 -46,26 -85,48c-38,23 -77,44 -85,48c-8,4 -28,16 -45,27c-16,11 -37,23 -45,27c-8,4 -58,32 -110,63c-52,31 -102,59 -110,63c-8,4 -28,16 -45,26c-45,29 -105,61 -113,61c-4,0 -25,-12 -47,-26zm80,-585c4,-5 17,-14 28,-20c12,-5 29,-13 37,-19c22,-14 163,-95 180,-103c8,-4 29,-16 45,-27c17,-11 37,-23 45,-27c8,-4 47,-26 85,-48c39,-23 77,-44 85,-48c8,-4 29,-16 45,-27c17,-11 37,-23 45,-27c8,-4 47,-25 85,-48c39,-22 77,-44 85,-48c8,-4 29,-16 45,-27c17,-11 37,-23 45,-27c8,-4 47,-26 85,-48c39,-23 77,-44 85,-48c8,-4 29,-16 45,-27c17,-11 37,-23 45,-27c8,-4 58,-32 110,-63c52,-31 102,-59 110,-63c8,-4 22,-11 30,-17c21,-14 162,-95 180,-103c8,-4 29,-16 45,-27c17,-11 37,-23 45,-27c8,-4 58,-32 110,-63c52,-31 102,-59 110,-63c8,-4 22,-11 30,-17c22,-14 212,-125 230,-133c8,-4 29,-16 45,-27c17,-11 37,-23 45,-27c8,-4 47,-25 85,-48c39,-22 77,-44 85,-48c8,-4 29,-16 45,-27c17,-11 37,-23 45,-27c8,-4 47,-25 85,-48c39,-22 77,-44 85,-48c8,-4 22,-11 30,-17c22,-14 212,-125 230,-133c8,-4 29,-16 45,-27c17,-11 37,-23 45,-27c8,-4 47,-25 85,-48c39,-22 77,-44 85,-48c19,-10 47,-27 83,-51l27,-18l0,-1909l0,-1909l-22,-11c-13,-5 -32,-15 -43,-22c-11,-7 -51,-30 -90,-52c-38,-22 -79,-45 -90,-52c-11,-7 -27,-16 -35,-20c-8,-4 -58,-32 -110,-63c-52,-31 -102,-59 -110,-63c-8,-4 -28,-16 -45,-27c-16,-11 -37,-23 -45,-27c-8,-4 -46,-25 -85,-48c-38,-22 -77,-44 -85,-48c-8,-4 -28,-16 -45,-27c-16,-11 -37,-23 -45,-27c-8,-4 -46,-26 -85,-48c-38,-23 -77,-44 -85,-48c-8,-4 -28,-16 -45,-27c-16,-11 -37,-23 -45,-27c-8,-4 -46,-25 -85,-48c-38,-22 -77,-44 -85,-48c-8,-4 -28,-16 -45,-27c-16,-11 -37,-23 -45,-27c-8,-4 -46,-26 -85,-48c-38,-23 -77,-44 -85,-48c-8,-4 -28,-16 -45,-27c-16,-11 -37,-23 -45,-27c-8,-4 -58,-32 -110,-63c-52,-31 -102,-59 -110,-63c-8,-4 -28,-16 -45,-27c-30,-19 -41,-25 -130,-74c-27,-15 -63,-36 -80,-47c-16,-10 -37,-22 -45,-26c-8,-4 -46,-26 -85,-48c-38,-23 -77,-44 -85,-48c-8,-4 -28,-16 -45,-27c-16,-11 -37,-23 -45,-27c-8,-4 -58,-32 -110,-63c-52,-31 -102,-59 -110,-63c-8,-4 -28,-16 -45,-27c-16,-11 -37,-23 -45,-27c-8,-4 -46,-25 -85,-48c-38,-22 -77,-44 -85,-48c-8,-4 -28,-16 -45,-27c-16,-11 -37,-23 -45,-27c-8,-4 -46,-26 -85,-48c-38,-23 -77,-44 -85,-48c-8,-4 -24,-13 -35,-19c-60,-39 -96,-58 -110,-58c-8,0 -32,10 -53,23c-20,13 -44,27 -52,31c-8,4 -24,12 -35,19c-11,7 -63,37 -115,67c-52,30 -104,60 -115,67c-11,7 -27,16 -35,20c-8,4 -58,32 -110,63c-52,31 -102,59 -110,63c-8,4 -28,16 -45,27c-16,11 -37,23 -45,27c-8,4 -46,25 -85,48c-38,22 -77,44 -85,48c-8,4 -28,16 -45,27c-16,11 -37,23 -45,27c-8,4 -46,26 -85,48c-38,23 -77,44 -85,48c-8,4 -22,11 -30,17c-22,14 -212,125 -230,133c-8,4 -28,16 -45,27c-16,11 -37,23 -45,27c-8,4 -46,25 -85,48c-38,22 -77,44 -85,48c-8,4 -28,16 -45,27c-16,11 -37,23 -45,27c-8,4 -58,32 -110,63c-52,31 -102,59 -110,63c-8,4 -22,11 -30,17c-22,14 -162,95 -180,103c-8,4 -28,16 -45,27c-16,11 -37,23 -45,27c-8,4 -46,26 -85,48c-38,23 -77,44 -85,48c-8,4 -28,16 -45,27c-16,11 -37,23 -45,27c-8,4 -58,32 -110,63c-52,31 -102,59 -110,63c-8,4 -28,16 -45,27c-16,11 -37,23 -45,27c-8,4 -46,25 -85,48c-38,22 -77,44 -85,48c-8,4 -31,17 -50,28c-19,12 -78,46 -130,77c-52,30 -98,60 -102,66c-4,6 -8,862 -8,1901c0,1040 4,1895 8,1901c4,6 14,13 22,17c8,4 22,11 30,17c22,14 212,125 230,133c8,4 29,16 45,27c17,11 37,23 45,27c8,4 47,25 85,48c39,22 77,44 85,48c8,4 29,16 45,27c17,11 37,23 45,27c8,4 47,25 85,48c39,22 77,44 85,48c8,4 22,11 30,17c22,14 212,125 230,133c8,4 29,16 45,27c17,11 37,23 45,27c8,4 47,26 85,48c39,23 77,44 85,48c8,4 29,16 45,27c17,11 37,23 45,27c8,4 47,26 85,48c39,23 77,44 85,48c8,4 29,16 45,27c17,11 37,23 45,27c8,4 47,25 85,48c39,22 77,44 85,48c8,4 29,16 45,27c17,11 37,23 45,27c8,4 47,26 85,48c39,23 77,44 85,48c8,4 29,16 45,27c17,11 37,23 45,27c8,4 58,32 110,63c52,31 102,59 110,63c8,4 24,13 35,20c11,7 63,37 115,67c52,30 104,60 115,67c11,7 27,16 35,20c8,4 58,32 110,63c52,31 102,59 110,63c8,4 24,13 35,20c11,7 63,37 115,67c52,30 104,60 115,67c11,7 30,17 42,22c11,5 24,15 28,20c3,6 17,11 30,11c13,0 27,-5 30,-11z"/>
    <path fill="#ffffff" stroke="#ffffff" id="svg_12" d="m119811.864807,-130330.094788c-17,-4 -18,-26 -18,-283c0,-244 2,-279 16,-284c9,-3 167,-6 352,-6c303,0 343,-2 398,-19c275,-87 445,-354 400,-631c-17,-107 -29,-138 -85,-224c-85,-129 -191,-205 -346,-247c-62,-16 -108,-19 -403,-19l-332,0l2,-282l3,-283l213,-5l212,-5l33,-55c18,-30 36,-62 40,-70c4,-8 16,-28 27,-45c11,-16 23,-37 27,-45c4,-8 32,-58 63,-110c31,-52 59,-102 63,-110c4,-8 16,-28 27,-45c11,-16 23,-37 27,-45c4,-8 26,-46 48,-85c23,-38 44,-77 48,-85c4,-8 16,-28 27,-45c11,-16 23,-37 27,-45c8,-18 118,-208 133,-230c6,-8 15,-24 20,-35c6,-11 18,-33 28,-50l19,-30l326,-3c232,-2 327,1 327,9c0,6 -15,36 -33,67c-18,31 -36,64 -40,72c-4,8 -13,24 -20,35c-7,11 -37,63 -67,115c-30,52 -60,104 -67,115c-7,11 -15,27 -19,35c-4,8 -26,47 -49,85c-22,39 -44,77 -48,85c-4,8 -16,29 -27,45c-11,17 -23,37 -27,45c-8,18 -89,159 -103,180c-6,8 -13,22 -17,30c-4,8 -26,47 -48,85c-23,39 -44,77 -48,85c-4,8 -16,29 -27,45c-27,42 -42,76 -37,89c3,6 39,29 81,50c146,74 266,178 372,321c72,98 74,102 117,190c33,66 49,105 76,185c20,59 41,219 41,315c0,97 -20,247 -44,330c-100,342 -407,657 -741,759c-158,48 -164,49 -555,52c-206,1 -383,0 -392,-3z"/>
    <path fill="#ffffff" stroke="#ffffff" id="svg_13" d="m116003.864807,-132073.094788l0,-1710l283,2l282,3l2,1005c2,553 5,1011 8,1018c3,9 221,-202 566,-547c308,-309 565,-561 569,-561c5,0 260,252 567,560c306,308 561,556 565,552c4,-4 9,-462 10,-1017l3,-1010l285,0l285,0l3,1699c1,1153 -1,1703 -8,1710c-7,7 -277,-256 -853,-832c-463,-463 -849,-842 -857,-842c-8,0 -393,378 -855,840c-462,462 -843,840 -847,840c-5,0 -8,-770 -8,-1710z"/>
   </g>
  </g>
 </g>
</svg>